# xmcd CD database file
#
# Track frame offsets:
#	150
#	35744
#	59799
#	88906
#	117974
#	145918
#	173971
#	203718
#	226922
#	251771
#
# Disc length: 3671 seconds
#
# Revision: 0
# Processed by: cddbd v1.5.2PL0 Copyright (c) Steve Scherf et al.
# Submitted via: CDex 1.70beta2
#
DISCID=950e550a
DTITLE=Organiks - Organiks
DYEAR=2009
DGENRE=Jazz
TTITLE0=JB
TTITLE1=Blues for 5
TTITLE2=Print error
TTITLE3=ES3
TTITLE4=Sarea
TTITLE5=Turtle
TTITLE6=Laisterka
TTITLE7=Mulgadean
TTITLE8=Zideko
TTITLE9=Despedida
EXTD=YEAR: 2009
EXTT0=
EXTT1=
EXTT2=
EXTT3=
EXTT4=
EXTT5=
EXTT6=
EXTT7=
EXTT8=
EXTT9=
PLAYORDER=
